<svg id="PS" xmlns="http://www.w3.org/2000/svg" width="415.219" height="289" viewBox="0 0 415.219 289">
  <metadata><?xpacket begin="﻿" id="W5M0MpCehiHzreSzNTczkc9d"?>
<x:xmpmeta xmlns:x="adobe:ns:meta/" x:xmptk="Adobe XMP Core 5.6-c140 79.160451, 2017/05/06-01:08:21        ">
   <rdf:RDF xmlns:rdf="http://www.w3.org/1999/02/22-rdf-syntax-ns#">
      <rdf:Description rdf:about=""/>
   </rdf:RDF>
</x:xmpmeta>
                                                                                                    
                                                                                                    
                                                                                                    
                                                                                                    
                                                                                                    
                                                                                                    
                                                                                                    
                                                                                                    
                                                                                                    
                                                                                                    
                                                                                                    
                                                                                                    
                                                                                                    
                                                                                                    
                                                                                                    
                                                                                                    
                                                                                                    
                                                                                                    
                                                                                                    
                                                                                                    
                           
<?xpacket end="w"?></metadata>
<defs>
    <style>
      .cls-1 {
        fill: none;
        stroke: #1ccc41;
        stroke-width: 8px;
      }

      .cls-1, .cls-2 {
        fill-rule: evenodd;
      }

      .cls-2, .cls-3 {
        fill: #1ccc41;
      }
    </style>
  </defs>
  <path id="Ellipse_3_copy" data-name="Ellipse 3 copy" class="cls-1" d="M1155,1112c0-23.21-10.35-44.3-28.36-55.5-11.28-7.02-.72-17.86-13.64-26.5-11.51-7.69-32.05-5.39-43-4-23.69,3-10.27,20.97-27.58,31.64-17.61,10.86-26.51,33.52-29.42,56.36-9,70.71-9,71.21-14,119.5-2.759,26.64,21.71,48.5,48.5,48.5s34.99-19.37,48.5-42.5C1124.5,1190.71,1155,1151.21,1155,1112Zm-11,12a52,52,0,1,1-52,52A52,52,0,0,1,1144,1124Zm105.95-11.72c0-23.17,10.34-44.23,28.33-55.41,11.27-7,.72-17.82,13.63-26.44,11.5-7.68,32.01-5.38,42.95-4,23.67,3,10.26,20.93,27.55,31.58,17.59,10.84,26.48,33.47,29.39,56.27,8.99,70.59,8.99,71.09,13.98,119.3,2.76,26.6-21.69,48.42-48.44,48.42s-34.95-19.34-48.45-42.43C1280.42,1190.86,1249.95,1151.43,1249.95,1112.28Zm10.99,11.98a51.915,51.915,0,1,0,51.94,51.91A51.928,51.928,0,0,0,1260.94,1124.26Z" transform="translate(-994.781 -997)"/>
  <path id="Ellipse_4_copy" data-name="Ellipse 4 copy" class="cls-1" d="M1261,1146a30,30,0,1,1-30,30A30,30,0,0,1,1261,1146Zm-117,0a30,30,0,1,1-30,30A30,30,0,0,1,1144,1146Z" transform="translate(-994.781 -997)"/>
  <path id="Rounded_Rectangle_2_copy" data-name="Rounded Rectangle 2 copy" class="cls-2" d="M1077,1074h15a6,6,0,0,1,6,6v10c0-1.18-7,13.03-13.5,13s-13.5-14.49-13.5-13v-10A6,6,0,0,1,1077,1074Zm44,29v15a6,6,0,0,1-6,6h-10c1.18,0-13.03-7-13-13.5s14.49-13.5,13-13.5h10A6,6,0,0,1,1121,1103Zm-28,44h-15a6,6,0,0,1-6-6v-10c0,1.18,7-13.03,13.5-13s13.5,14.49,13.5,13v10A6,6,0,0,1,1093,1147Zm-44-29v-15a6,6,0,0,1,6-6h10c-1.18,0,13.03,7,13,13.5s-14.49,13.5-13,13.5h-10A6,6,0,0,1,1049,1118Zm271.5-56a17.5,17.5,0,1,1-17.5,17.5A17.5,17.5,0,0,1,1320.5,1062Zm0,60a17.5,17.5,0,1,1-17.5,17.5A17.5,17.5,0,0,1,1320.5,1122Zm47.5-12.5a17.5,17.5,0,1,1-17.5-17.5A17.506,17.506,0,0,1,1368,1109.5Zm-60,0a17.5,17.5,0,1,1-17.5-17.5A17.506,17.506,0,0,1,1308,1109.5ZM1122,1053s1.19,7,30,8c30.02,1.04,69.04.45,98,0,32.08-.5,33-8,33-8s-19.4,26.6-23,33-4.53,27.56-2,43c-23.16,2.97-32,16-32,16s-19.33,19.2-9.2,45h-6.3c-3.99-3.17-3.83-3-8-3-5.09,0-5.18,0-8.5,3h-5c4.21-43.25-12.25-47.25-19-53-10-5-11.44-5.57-24.27-8.04,1.76-13.11,2.03-26.47-.73-37.96C1141.3,1075.6,1122,1053,1122,1053Zm44,53h22a2,2,0,0,1,0,4h-22A2,2,0,0,1,1166,1106Zm50,0h22a2,2,0,0,1,0,4h-22A2,2,0,0,1,1216,1106Z" transform="translate(-994.781 -997)"/>
  <rect class="cls-3" x="202.219" width="10" height="72"/>
</svg>
